<?xml version="1.0" encoding="UTF-8" standalone="no"?>
<svg
  width="256"
  height="256"
  version="1.1"
  viewBox="0 0 256 256"
  id="svg2442"
  sodipodi:docname="wind-1.svg"
  inkscape:version="1.2 (dc2aeda, 2022-05-15)"
  xmlns:inkscape="http://www.inkscape.org/namespaces/inkscape"
  xmlns:sodipodi="http://sodipodi.sourceforge.net/DTD/sodipodi-0.dtd"
  xmlns="http://www.w3.org/2000/svg"
  xmlns:svg="http://www.w3.org/2000/svg">
 <defs
   id="defs2446" />
 <sodipodi:namedview
   id="namedview2444"
   pagecolor="#ffffff"
   bordercolor="#666666"
   borderopacity="1.0"
   inkscape:showpageshadow="2"
   inkscape:pageopacity="0.0"
   inkscape:pagecheckerboard="0"
   inkscape:deskcolor="#d1d1d1"
   inkscape:document-units="px"
   showgrid="false"
   inkscape:zoom="0.25285714"
   inkscape:cx="-395.48023"
   inkscape:cy="466.66667"
   inkscape:window-width="1344"
   inkscape:window-height="456"
   inkscape:window-x="0"
   inkscape:window-y="0"
   inkscape:window-maximized="0"
   inkscape:current-layer="svg2442" />
 <circle
   style="fill:#ffffff;stroke-width:1.00157;stroke-linecap:round;stroke-linejoin:round;stroke-dasharray:2.00315, 2.00315"
   id="path2854"
   cx="128"
   cy="128"
   r="128" />
 <g
   id="g2440"
   transform="matrix(0.45713959,0,0,0.45713959,-31.998857,0)"
   style="stroke-width:2.18752">
  <path
    d="M 350,0 C 275.738,0 204.52,29.5 152.01,82.012 99.498,134.52 69.998,205.742 69.998,280.002 c 0,74.26 29.5,145.48 82.012,197.99 52.508,52.512 123.73,82.012 197.99,82.012 74.26,0 145.48,-29.5 197.99,-82.012 52.512,-52.508 82.012,-123.73 82.012,-197.99 0,-74.26 -29.5,-145.48 -82.012,-197.99 C 495.482,29.5 424.26,0 350,0 Z m -21.621,147.31 c 0.66406,-9.1875 1.8594,-18.328 3.5781,-27.379 1.5508,-9.0703 3.9492,-17.977 7.1523,-26.602 1.5977,-4.6523 5.9727,-7.7773 10.891,-7.7773 4.9183,0 9.293,3.125 10.891,7.7773 3.25,8.8789 5.6484,18.047 7.1523,27.379 1.7188,9.0508 2.9141,18.191 3.5781,27.379 0.77734,9.1016 1.0859,18.242 0.93359,27.375 -0.49609,10.043 -4.6445,19.559 -11.664,26.758 -2.7578,2.8398 -6.543,4.4453 -10.5,4.4453 -3.9609,0 -7.7461,-1.6055 -10.5,-4.4453 -0.25781,0.0547 -0.52344,0.0547 -0.78125,0 -7.1602,-7.3555 -11.32,-17.117 -11.664,-27.379 -0.16016,-9.1875 0.15234,-18.375 0.93359,-27.531 z M 303.332,301 c -0.0898,0.35547 -0.0898,0.73047 0,1.0898 -2.9531,9.8047 -9.3633,18.207 -18.043,23.645 -7.7773,4.668 -15.555,9.0234 -24.109,12.91 -8.2891,4.0312 -16.805,7.5625 -25.512,10.578 -8.8242,3.3594 -17.938,5.9141 -27.223,7.6211 -3.125,0.68359 -6.3906,0.0547 -9.0352,-1.7383 -2.6484,-1.7969 -4.4414,-4.5977 -4.9648,-7.75 -0.58594,-3.375 0.32422,-6.8359 2.4883,-9.4883 6.1055,-7.25 12.879,-13.918 20.223,-19.91 7.0039,-5.9922 14.324,-11.602 21.934,-16.801 7.4648,-5.082 15.246,-9.9023 23.332,-14.465 v -0.004 c 9.0195,-4.793 19.496,-6.0664 29.398,-3.5781 3.832,0.96484 7.1562,3.3477 9.293,6.6719 2.1367,3.3203 2.9336,7.332 2.2188,11.219 z m 57.867,-2.1797 10.891,152.29 c 0.55469,7.8945 -3.1406,15.48 -9.6992,19.91 -6.5547,4.4258 -14.977,5.0195 -22.09,1.5547 -7.1094,-3.4648 -11.832,-10.461 -12.391,-18.352 v -3.1133 l 10.578,-152.6 v 0.004 c -11.777,-3.6992 -21.059,-12.828 -24.949,-24.543 -3.8945,-11.715 -1.9219,-24.586 5.3008,-34.598 7.2227,-10.008 18.816,-15.941 31.16,-15.941 12.344,0 23.938,5.9336 31.16,15.941 7.2227,10.012 9.1953,22.883 5.3008,34.598 -3.8906,11.715 -13.172,20.844 -24.949,24.543 z m 140,55.379 c -2.6953,2.2109 -6.1992,3.1719 -9.6445,2.6445 -9.2852,-1.707 -18.398,-4.2617 -27.223,-7.6211 -8.707,-3.0156 -17.223,-6.5469 -25.512,-10.578 -8.2461,-3.8906 -16.332,-8.2461 -24.109,-12.91 -8.6797,-5.4375 -15.09,-13.84 -18.043,-23.645 -1.0469,-3.8164 -0.59766,-7.8867 1.25,-11.383 1.8516,-3.4961 4.9609,-6.1562 8.7031,-7.4414 h 1.0898 c 9.9062,-2.4883 20.383,-1.2148 29.398,3.5781 8.0898,4.4609 15.867,9.2812 23.332,14.465 l 0.004,0.004 c 7.6094,5.1992 14.93,10.809 21.934,16.797 7.3438,5.9961 14.113,12.66 20.223,19.914 3.9766,4.8828 3.3555,12.047 -1.4023,16.176 z"
    id="path2436"
    style="stroke-width:2.18752" />
  <path
    d="m 350,245.93 c -4.375,0 -8.5664,1.7383 -11.66,4.8281 -3.0898,3.0938 -4.8281,7.2891 -4.8281,11.66 0,4.375 1.7383,8.5664 4.8281,11.66 3.0938,3.0938 7.2852,4.8281 11.66,4.8281 4.3748,0 8.5664,-1.7344 11.66,-4.8281 3.0898,-3.0938 4.8281,-7.2852 4.8281,-11.66 -0.0391,-4.3594 -1.7891,-8.5312 -4.875,-11.613 -3.082,-3.0859 -7.2539,-4.8359 -11.613,-4.875 z"
    id="path2438"
    style="stroke-width:2.18752" />
 </g>
</svg>
